<svg width="15" height="12" viewBox="0 0 15 12" fill="none" xmlns="http://www.w3.org/2000/svg">
<path d="M8.90626 10.2857H7.03126C6.90694 10.2857 6.78771 10.3309 6.69981 10.4112C6.6119 10.4916 6.56251 10.6006 6.56251 10.7143V11.5714C6.56251 11.6851 6.6119 11.7941 6.69981 11.8745C6.78771 11.9548 6.90694 12 7.03126 12H8.90626C9.03058 12 9.14981 11.9548 9.23771 11.8745C9.32562 11.7941 9.37501 11.6851 9.37501 11.5714V10.7143C9.37501 10.6006 9.32562 10.4916 9.23771 10.4112C9.14981 10.3309 9.03058 10.2857 8.90626 10.2857ZM5.15626 8.57143H3.75002V0.428571C3.75002 0.314907 3.70063 0.205898 3.61272 0.125526C3.52482 0.0451529 3.40559 0 3.28127 0H2.34377C2.21945 0 2.10022 0.0451529 2.01231 0.125526C1.92441 0.205898 1.87502 0.314907 1.87502 0.428571V8.57143H0.468772C0.0530499 8.57143 -0.157301 9.03321 0.138011 9.30295L2.48176 11.8744C2.56966 11.9547 2.68884 11.9998 2.8131 11.9998C2.93737 11.9998 3.05655 11.9547 3.14445 11.8744L5.4882 9.30295C5.78175 9.03375 5.57287 8.57143 5.15626 8.57143ZM12.6563 3.42857H7.03126C6.90694 3.42857 6.78771 3.47372 6.69981 3.5541C6.6119 3.63447 6.56251 3.74348 6.56251 3.85714V4.71429C6.56251 4.82795 6.6119 4.93696 6.69981 5.01733C6.78771 5.0977 6.90694 5.14286 7.03126 5.14286H12.6563C12.7806 5.14286 12.8998 5.0977 12.9877 5.01733C13.0756 4.93696 13.125 4.82795 13.125 4.71429V3.85714C13.125 3.74348 13.0756 3.63447 12.9877 3.5541C12.8998 3.47372 12.7806 3.42857 12.6563 3.42857ZM10.7813 6.85714H7.03126C6.90694 6.85714 6.78771 6.9023 6.69981 6.98267C6.6119 7.06304 6.56251 7.17205 6.56251 7.28571V8.14286C6.56251 8.25652 6.6119 8.36553 6.69981 8.4459C6.78771 8.52628 6.90694 8.57143 7.03126 8.57143H10.7813C10.9056 8.57143 11.0248 8.52628 11.1127 8.4459C11.2006 8.36553 11.25 8.25652 11.25 8.14286V7.28571C11.25 7.17205 11.2006 7.06304 11.1127 6.98267C11.0248 6.9023 10.9056 6.85714 10.7813 6.85714ZM14.5312 0H7.03126C6.90694 0 6.78771 0.0451529 6.69981 0.125526C6.6119 0.205898 6.56251 0.314907 6.56251 0.428571V1.28571C6.56251 1.39938 6.6119 1.50839 6.69981 1.58876C6.78771 1.66913 6.90694 1.71429 7.03126 1.71429H14.5312C14.6556 1.71429 14.7748 1.66913 14.8627 1.58876C14.9506 1.50839 15 1.39938 15 1.28571V0.428571C15 0.314907 14.9506 0.205898 14.8627 0.125526C14.7748 0.0451529 14.6556 0 14.5312 0Z" fill="black"/>
</svg>
