<svg width="38" height="38" viewBox="0 0 38 38" fill="none" xmlns="http://www.w3.org/2000/svg">
<path d="M19 0C8.50403 0 0 8.50403 0 19C0 29.496 8.50403 38 19 38C29.496 38 38 29.496 38 19C38 8.50403 29.496 0 19 0ZM19 7.35484C22.7234 7.35484 25.7419 10.3734 25.7419 14.0968C25.7419 17.8202 22.7234 20.8387 19 20.8387C15.2766 20.8387 12.2581 17.8202 12.2581 14.0968C12.2581 10.3734 15.2766 7.35484 19 7.35484ZM19 33.7097C14.5028 33.7097 10.473 31.6718 7.77621 28.4847C9.21653 25.7726 12.0359 23.9032 15.3226 23.9032C15.5065 23.9032 15.6903 23.9339 15.8665 23.9875C16.8625 24.3093 17.9044 24.5161 19 24.5161C20.0956 24.5161 21.1452 24.3093 22.1335 23.9875C22.3097 23.9339 22.4935 23.9032 22.6774 23.9032C25.9641 23.9032 28.7835 25.7726 30.2238 28.4847C27.527 31.6718 23.4972 33.7097 19 33.7097Z" fill="#9E9E9E"/>
</svg>
