<svg width="16" height="15" viewBox="0 0 16 15" fill="none" xmlns="http://www.w3.org/2000/svg">
<path d="M11.1833 2.43505L13.6889 5.07814C13.7944 5.18949 13.7944 5.37117 13.6889 5.48252L7.62222 11.8822L5.04444 12.184C4.7 12.225 4.40833 11.9174 4.44722 11.554L4.73333 8.83473L10.8 2.43505C10.9056 2.3237 11.0778 2.3237 11.1833 2.43505ZM15.6833 1.76402L14.3278 0.33405C13.9056 -0.11135 13.2194 -0.11135 12.7944 0.33405L11.8111 1.37136C11.7056 1.48271 11.7056 1.66439 11.8111 1.77574L14.3167 4.41883C14.4222 4.53018 14.5944 4.53018 14.7 4.41883L15.6833 3.38152C16.1056 2.93319 16.1056 2.20942 15.6833 1.76402ZM10.6667 10.1416V13.1246H1.77778V3.7478H8.16111C8.25 3.7478 8.33333 3.70971 8.39722 3.64524L9.50833 2.47314C9.71944 2.25044 9.56944 1.87244 9.27222 1.87244H1.33333C0.597222 1.87244 0 2.50244 0 3.27896V13.5935C0 14.37 0.597222 15 1.33333 15H11.1111C11.8472 15 12.4444 14.37 12.4444 13.5935V8.96953C12.4444 8.65599 12.0861 8.50068 11.875 8.72045L10.7639 9.89256C10.7028 9.95995 10.6667 10.0479 10.6667 10.1416Z" fill="#1A90FF"/>
</svg>
