<svg width="11" height="12" viewBox="0 0 11 12" fill="none" xmlns="http://www.w3.org/2000/svg">
<path d="M0 10.875C0 11.4961 0.527902 12 1.17857 12H9.82143C10.4721 12 11 11.4961 11 10.875V4.5H0V10.875ZM7.85714 6.28125C7.85714 6.12656 7.98973 6 8.15179 6H9.13393C9.29598 6 9.42857 6.12656 9.42857 6.28125V7.21875C9.42857 7.37344 9.29598 7.5 9.13393 7.5H8.15179C7.98973 7.5 7.85714 7.37344 7.85714 7.21875V6.28125ZM7.85714 9.28125C7.85714 9.12656 7.98973 9 8.15179 9H9.13393C9.29598 9 9.42857 9.12656 9.42857 9.28125V10.2188C9.42857 10.3734 9.29598 10.5 9.13393 10.5H8.15179C7.98973 10.5 7.85714 10.3734 7.85714 10.2188V9.28125ZM4.71429 6.28125C4.71429 6.12656 4.84687 6 5.00893 6H5.99107C6.15312 6 6.28571 6.12656 6.28571 6.28125V7.21875C6.28571 7.37344 6.15312 7.5 5.99107 7.5H5.00893C4.84687 7.5 4.71429 7.37344 4.71429 7.21875V6.28125ZM4.71429 9.28125C4.71429 9.12656 4.84687 9 5.00893 9H5.99107C6.15312 9 6.28571 9.12656 6.28571 9.28125V10.2188C6.28571 10.3734 6.15312 10.5 5.99107 10.5H5.00893C4.84687 10.5 4.71429 10.3734 4.71429 10.2188V9.28125ZM1.57143 6.28125C1.57143 6.12656 1.70402 6 1.86607 6H2.84821C3.01027 6 3.14286 6.12656 3.14286 6.28125V7.21875C3.14286 7.37344 3.01027 7.5 2.84821 7.5H1.86607C1.70402 7.5 1.57143 7.37344 1.57143 7.21875V6.28125ZM1.57143 9.28125C1.57143 9.12656 1.70402 9 1.86607 9H2.84821C3.01027 9 3.14286 9.12656 3.14286 9.28125V10.2188C3.14286 10.3734 3.01027 10.5 2.84821 10.5H1.86607C1.70402 10.5 1.57143 10.3734 1.57143 10.2188V9.28125ZM9.82143 1.5H8.64286V0.375C8.64286 0.16875 8.46607 0 8.25 0H7.46429C7.24821 0 7.07143 0.16875 7.07143 0.375V1.5H3.92857V0.375C3.92857 0.16875 3.75179 0 3.53571 0H2.75C2.53393 0 2.35714 0.16875 2.35714 0.375V1.5H1.17857C0.527902 1.5 0 2.00391 0 2.625V3.75H11V2.625C11 2.00391 10.4721 1.5 9.82143 1.5Z" fill="black"/>
</svg>
