<svg width="18" height="20" viewBox="0 0 18 20" fill="none" xmlns="http://www.w3.org/2000/svg">
<path d="M1.28571 18.125C1.28571 18.6223 1.4889 19.0992 1.85058 19.4508C2.21226 19.8025 2.7028 20 3.21429 20H14.7857C15.2972 20 15.7877 19.8025 16.1494 19.4508C16.5111 19.0992 16.7143 18.6223 16.7143 18.125V5H1.28571V18.125ZM4.95442 11.375L8.54558 7.69297C8.60355 7.63208 8.67384 7.58349 8.75204 7.55026C8.83024 7.51703 8.91466 7.49988 9 7.49988C9.08534 7.49988 9.16976 7.51703 9.24796 7.55026C9.32616 7.58349 9.39645 7.63208 9.45442 7.69297L13.0456 11.375C13.4506 11.7898 13.1637 12.5 12.5908 12.5H10.2857V16.875C10.2857 17.0408 10.218 17.1997 10.0974 17.3169C9.97687 17.4342 9.81335 17.5 9.64286 17.5H8.35714C8.18665 17.5 8.02313 17.4342 7.90257 17.3169C7.78202 17.1997 7.71429 17.0408 7.71429 16.875V12.5H5.40924C4.83629 12.5 4.54942 11.7898 4.95442 11.375ZM17.3571 1.25001H12.5357L12.158 0.519538C12.078 0.363372 11.9548 0.232008 11.8022 0.140225C11.6496 0.0484421 11.4736 -0.00011828 11.2942 6.84872e-06H6.70179C6.52274 -0.000662313 6.34712 0.047717 6.19506 0.139602C6.04299 0.231487 5.92062 0.363161 5.84196 0.519538L5.46429 1.25001H0.642857C0.472361 1.25001 0.308848 1.31585 0.188289 1.43306C0.0677294 1.55027 0 1.70925 0 1.87501L0 3.12501C0 3.29077 0.0677294 3.44974 0.188289 3.56695C0.308848 3.68416 0.472361 3.75001 0.642857 3.75001H17.3571C17.5276 3.75001 17.6912 3.68416 17.8117 3.56695C17.9323 3.44974 18 3.29077 18 3.12501V1.87501C18 1.70925 17.9323 1.55027 17.8117 1.43306C17.6912 1.31585 17.5276 1.25001 17.3571 1.25001Z" fill="#E2ACAC"/>
</svg>
