<svg width="16" height="20" viewBox="0 0 16 20" fill="none" xmlns="http://www.w3.org/2000/svg">
<path d="M9.33333 5.3125V0H1C0.445833 0 0 0.417969 0 0.9375V19.0625C0 19.582 0.445833 20 1 20H15C15.5542 20 16 19.582 16 19.0625V6.25H10.3333C9.78333 6.25 9.33333 5.82812 9.33333 5.3125ZM11.8375 9.47266L9.33333 13.125L11.8375 16.7773C12.05 17.0898 11.8125 17.5 11.4167 17.5H9.9625C9.77917 17.5 9.60833 17.4062 9.52083 17.2539C8.70417 15.8398 8 14.5703 8 14.5703C7.73333 15.1484 7.58333 15.3516 6.475 17.2578C6.3875 17.4102 6.22083 17.5039 6.0375 17.5039H4.58333C4.1875 17.5039 3.95 17.0938 4.1625 16.7812L6.675 13.1289L4.1625 9.47656C3.94583 9.16406 4.1875 8.75391 4.58333 8.75391H6.03333C6.21667 8.75391 6.3875 8.84766 6.475 9C7.5625 10.9062 7.30833 10.3125 8 11.6758C8 11.6758 8.25417 11.2188 9.525 9C9.6125 8.84766 9.78333 8.75391 9.96667 8.75391H11.4167C11.8125 8.75 12.05 9.16016 11.8375 9.47266ZM16 4.76172V5H10.6667V0H10.9208C11.1875 0 11.4417 0.0976562 11.6292 0.273438L15.7083 4.10156C15.8958 4.27734 16 4.51562 16 4.76172Z" fill="#0B792A"/>
</svg>
