<svg width="10" height="10" viewBox="0 0 10 10" fill="none" xmlns="http://www.w3.org/2000/svg">
<path d="M4.60092 8.12919e-06C3.36923 0.00240732 2.25092 0.528899 1.42528 1.38479L0.761495 0.664746C0.480472 0.359907 0 0.575794 0 1.00688V3.70968C0 3.97692 0.199709 4.19355 0.446069 4.19355H2.93771C3.33512 4.19355 3.53415 3.67236 3.25314 3.36753L2.47717 2.52579C3.05081 1.94315 3.79309 1.62041 4.58168 1.61303C6.29901 1.59694 7.74659 3.1045 7.73174 5.0292C7.71766 6.85502 6.35306 8.3871 4.60938 8.3871C3.84498 8.3871 3.12254 8.09117 2.55318 7.54928C2.46503 7.46539 2.3319 7.47049 2.24897 7.56043L1.5118 8.36006C1.42125 8.45829 1.42573 8.61843 1.52076 8.71153C2.33811 9.51236 3.42123 10 4.60938 10C7.15505 10 9.21873 7.76143 9.21875 5.00004C9.21877 2.2418 7.14368 -0.00493138 4.60092 8.12919e-06Z" fill="#7E7E7E"/>
</svg>
